HIERARCHY
ROOT joint_Root
{
	OFFSET 0.0 0.0 0.0
	CHANNELS 6 Xposition Yposition Zposition Zrotation Xrotation Yrotation 
	JOINT Hips
	{
		OFFSET 4.5925 91.4895 -427.239
		CHANNELS 6 Xposition Yposition Zposition Zrotation Xrotation Yrotation 
		JOINT Spine
		{
			OFFSET 15.7357 0.0 0.0
			CHANNELS 6 Xposition Yposition Zposition Zrotation Xrotation Yrotation 
			JOINT Chest
			{
				OFFSET 8.98455 -0.406207 0.0
				CHANNELS 6 Xposition Yposition Zposition Zrotation Xrotation Yrotation 
				JOINT Neck
				{
					OFFSET 16.3773 0.0 0.0
					CHANNELS 6 Xposition Yposition Zposition Zrotation Xrotation Yrotation 
					JOINT Head
					{
						OFFSET 6.45672 0.0 0.0
						CHANNELS 6 Xposition Yposition Zposition Zrotation Xrotation Yrotation 
						End Site
						{
							OFFSET 0.0 0.0 0.0
						}
					}
				}
				JOINT Shoulder_L
				{
					OFFSET 12.9942 -0.242716 4.98039
					CHANNELS 6 Xposition Yposition Zposition Zrotation Xrotation Yrotation 
					JOINT UpperArm_L
					{
						OFFSET 5.34809 0.0 0.0
						CHANNELS 6 Xposition Yposition Zposition Zrotation Xrotation Yrotation 
						JOINT LowerArm_L
						{
							OFFSET 24.3286 1.87007e-05 0.0
							CHANNELS 6 Xposition Yposition Zposition Zrotation Xrotation Yrotation 
							JOINT Hand_L
							{
								OFFSET 22.2916 0.0 0.0
								CHANNELS 6 Xposition Yposition Zposition Zrotation Xrotation Yrotation 
								End Site
								{
									OFFSET 0.0 0.0 0.0
								}
							}
						}
					}
				}
				JOINT Shoulder_R
				{
					OFFSET 12.9945 -0.242716 -4.98039
					CHANNELS 6 Xposition Yposition Zposition Zrotation Xrotation Yrotation 
					JOINT UpperArm_R
					{
						OFFSET -5.34813 0.0 0.0
						CHANNELS 6 Xposition Yposition Zposition Zrotation Xrotation Yrotation 
						JOINT LowerArm_R
						{
							OFFSET -24.3289 0.000322201 0.0
							CHANNELS 6 Xposition Yposition Zposition Zrotation Xrotation Yrotation 
							JOINT Hand_R
							{
								OFFSET -22.2915 -0.000108084 0.0
								CHANNELS 6 Xposition Yposition Zposition Zrotation Xrotation Yrotation 
								End Site
								{
									OFFSET 0.0 0.0 0.0
								}
							}
						}
					}
				}
			}
		}
		JOINT UpperLeg_L
		{
			OFFSET -2.19248 -6.46944 0.0
			CHANNELS 6 Xposition Yposition Zposition Zrotation Xrotation Yrotation 
			JOINT LowerLeg_L
			{
				OFFSET 39.0811 0.0 -1.23785e-05
				CHANNELS 6 Xposition Yposition Zposition Zrotation Xrotation Yrotation 
				JOINT Foot_L
				{
					OFFSET 40.9854 0.0 -1.26872e-05
					CHANNELS 6 Xposition Yposition Zposition Zrotation Xrotation Yrotation 
					JOINT Toes_L
					{
						OFFSET 11.7543 0.0 0.0
						CHANNELS 6 Xposition Yposition Zposition Zrotation Xrotation Yrotation 
						End Site
						{
							OFFSET 0.0 0.0 0.0
						}
					}
				}
			}
		}
		JOINT UpperLeg_R
		{
			OFFSET -2.19251 6.46944 0.0
			CHANNELS 6 Xposition Yposition Zposition Zrotation Xrotation Yrotation 
			JOINT LowerLeg_R
			{
				OFFSET -39.0811 -0.00228153 -0.0401928
				CHANNELS 6 Xposition Yposition Zposition Zrotation Xrotation Yrotation 
				JOINT Foot_R
				{
					OFFSET -40.9854 0.0 0.0
					CHANNELS 6 Xposition Yposition Zposition Zrotation Xrotation Yrotation 
					JOINT Toes_R
					{
						OFFSET -11.7543 0.0 0.0
						CHANNELS 6 Xposition Yposition Zposition Zrotation Xrotation Yrotation 
						End Site
						{
							OFFSET 0.0 0.0 0.0
						}
					}
				}
			}
		}
	}
}
MOTION
Frames:	5
Frame Time:	0.0333333
0.000000 0.000000 0.000000 0.000000 0.000000 -0.000000 -4.746030 91.867500 -0.931588 88.707300 5.631450 1.614840 15.735700 0.000005 -0.000001 79.339500 86.327800 -82.459500 8.984550 -0.406207 -0.000000 -0.571429 -1.131540 -6.242380 16.377300 -0.000001 -0.000001 4.150190 -5.903410 6.446670 6.456720 -0.000001 -0.000000 -5.643530 -3.513880 1.334130 12.994200 -0.242716 4.980390 -91.594300 3.998720 -68.242300 5.348090 -0.000007 -0.000001 -62.047900 17.777700 -6.320420 24.328600 0.000019 0.000005 9.052660 21.639500 -23.366800 22.291600 -0.000001 0.000005 13.256100 5.140990 4.157890 12.994500 -0.242716 -4.980390 95.247400 -12.176100 -66.469600 -5.348130 -0.000001 -0.000004 -31.802700 -76.447900 -72.205700 -24.328900 0.000322 -0.000009 -4.031390 -5.461270 -36.514400 -22.291500 -0.000108 -0.000004 22.102200 5.555190 -8.954370 -2.192480 -6.469440 -0.000000 -172.930000 -9.844010 -7.576260 39.081100 -0.000007 -0.000012 -0.139250 0.303523 24.644900 40.985400 -0.000006 -0.000013 -1.689540 11.253400 -65.440100 11.754300 -0.000000 0.000003 -0.000058 -0.000639 -16.602300 -2.192510 6.469440 -0.000001 -178.739000 27.795700 175.303000 -39.081100 -0.002282 -0.040193 0.008894 -0.012899 23.389600 -40.985400 0.000008 0.000006 9.085120 11.616100 -69.216600 -11.754300 -0.000006 -0.000006 -0.003742 -0.048726 -18.555000
0.000000 0.000000 0.000000 0.000000 0.000000 -0.000000 -4.710440 91.853200 -0.892472 88.752500 5.266320 1.596370 15.735700 0.000005 -0.000001 78.555000 86.265400 -81.618700 8.984550 -0.406207 -0.000000 -0.471556 -1.261730 -6.129330 16.377300 -0.000001 -0.000001 3.948360 -5.672150 6.235360 6.456720 -0.000001 -0.000000 -5.636590 -3.248680 1.392680 12.994200 -0.242716 4.980390 -91.657800 4.163340 -68.265900 5.348090 -0.000007 -0.000001 -61.746300 17.998500 -6.375000 24.328600 0.000019 0.000005 9.176870 21.716000 -23.586700 22.291600 -0.000001 0.000005 13.445500 5.137270 4.245900 12.994500 -0.242716 -4.980390 94.968800 -11.782500 -66.937400 -5.348130 -0.000001 -0.000004 -26.921400 -75.404700 -65.653300 -24.328900 0.000322 -0.000009 -3.879850 -4.683120 -39.709300 -22.291500 -0.000108 -0.000004 22.507000 5.547230 -8.577000 -2.192480 -6.469440 -0.000000 -172.986000 -10.064600 -7.512090 39.081100 -0.000007 -0.000012 -0.140517 0.305603 24.693300 40.985400 -0.000006 -0.000013 -1.686920 11.114700 -65.532600 11.754300 -0.000000 0.000003 -0.000066 -0.000723 -16.605500 -2.192510 6.469440 -0.000001 -178.838000 27.474700 175.246000 -39.081100 -0.002282 -0.040193 0.001265 0.004711 23.515200 -40.985400 0.000008 0.000006 8.874710 11.738600 -69.230100 -11.754300 -0.000006 -0.000006 -0.003857 -0.049939 -18.604400
0.000000 0.000000 0.000000 0.000000 0.000000 -0.000000 -4.639240 91.844800 -0.852328 88.779800 4.667750 1.605010 15.735700 0.000005 -0.000001 78.359500 86.196400 -81.351600 8.984550 -0.406207 -0.000000 -0.342683 -1.323020 -5.984910 16.377300 -0.000001 -0.000001 3.699620 -5.412440 5.922260 6.456720 -0.000001 -0.000000 -5.642370 -2.989010 1.430080 12.994200 -0.242716 4.980390 -91.755100 4.419380 -68.314300 5.348090 -0.000007 -0.000001 -61.418500 18.343000 -6.462670 24.328600 0.000019 0.000005 9.135690 21.737100 -23.471400 22.291600 -0.000001 0.000005 13.463100 5.136440 4.265520 12.994500 -0.242716 -4.980390 94.661800 -11.334500 -67.466000 -5.348130 -0.000001 -0.000004 -23.423200 -73.702200 -59.685000 -24.328900 0.000322 -0.000009 -3.781300 -3.905230 -44.132400 -22.291500 -0.000108 -0.000004 22.969500 5.541790 -8.325060 -2.192480 -6.469440 -0.000000 -173.041000 -10.456900 -7.358920 39.081100 -0.000007 -0.000012 -0.140777 0.305734 24.724100 40.985400 -0.000006 -0.000013 -1.672680 10.887500 -65.649000 11.754300 -0.000000 0.000003 -0.000065 -0.000708 -16.604900 -2.192510 6.469440 -0.000001 -178.955000 27.145500 175.210000 -39.081100 -0.002282 -0.040193 -0.004555 0.017989 23.627500 -40.985400 0.000008 0.000006 8.788330 12.033800 -69.255900 -11.754300 -0.000006 -0.000006 -0.003453 -0.045627 -18.428800
0.000000 0.000000 0.000000 0.000000 0.000000 -0.000000 -4.540570 91.838300 -0.825592 88.778100 3.922520 1.640200 15.735700 0.000005 -0.000001 78.367400 86.134300 -81.260100 8.984550 -0.406207 -0.000000 -0.220858 -1.357120 -5.784820 16.377300 -0.000001 -0.000001 3.490660 -5.068920 5.626490 6.456720 -0.000001 -0.000000 -5.721070 -2.692330 1.390530 12.994200 -0.242716 4.980390 -91.833100 4.621050 -68.334600 5.348090 -0.000007 -0.000001 -61.330100 18.790700 -6.657110 24.328600 0.000019 0.000005 8.925630 21.845200 -22.883300 22.291600 -0.000001 0.000005 13.423400 5.130360 4.409050 12.994500 -0.242716 -4.980390 94.263700 -10.672700 -68.072300 -5.348130 -0.000001 -0.000004 -21.366100 -71.254600 -54.777600 -24.328900 0.000322 -0.000009 -3.986690 -3.435840 -49.299900 -22.291500 -0.000108 -0.000004 23.393000 5.537190 -8.116040 -2.192480 -6.469440 -0.000000 -173.066000 -10.919000 -7.142910 39.081100 -0.000007 -0.000012 -0.143238 0.310650 24.754100 40.985400 -0.000006 -0.000013 -1.656950 10.617800 -65.792900 11.754300 -0.000000 0.000003 -0.000064 -0.000697 -16.604500 -2.192510 6.469440 -0.000001 -179.113000 26.912600 175.224000 -39.081100 -0.002282 -0.040193 -0.011083 0.032786 23.708800 -40.985400 0.000008 0.000006 8.650130 12.606300 -69.263500 -11.754300 -0.000006 -0.000006 -0.003264 -0.043549 -18.344300
0.000000 0.000000 0.000000 0.000000 0.000000 -0.000000 -4.395780 91.827700 -0.799085 88.766600 2.980630 1.685290 15.735700 0.000005 -0.000001 78.842600 86.067100 -81.618500 8.984550 -0.406207 -0.000000 -0.074923 -1.331900 -5.549300 16.377300 -0.000001 -0.000001 3.188570 -4.656590 5.314010 6.456720 -0.000001 -0.000000 -5.706870 -2.394750 1.417500 12.994200 -0.242716 4.980390 -91.906700 4.797050 -68.293200 5.348090 -0.000007 -0.000001 -61.428400 19.311700 -6.885220 24.328600 0.000019 0.000005 8.642600 21.942100 -22.134700 22.291600 -0.000001 0.000005 13.464600 5.129880 4.420500 12.994500 -0.242716 -4.980390 93.736000 -9.683140 -68.783100 -5.348130 -0.000001 -0.000004 -20.163400 -68.168800 -50.509900 -24.328900 0.000322 -0.000009 -4.271680 -3.002870 -54.948900 -22.291500 -0.000108 -0.000004 23.444800 5.529740 -7.784190 -2.192480 -6.469440 -0.000000 -173.127000 -11.380200 -6.949030 39.081100 -0.000007 -0.000012 -0.144607 0.312223 24.851500 40.985400 -0.000006 -0.000013 -1.645710 10.132700 -65.966000 11.754300 -0.000000 0.000003 -0.000064 -0.000704 -16.604800 -2.192510 6.469440 -0.000001 -179.323000 26.757800 175.218000 -39.081100 -0.002282 -0.040193 -0.020129 0.053041 23.845100 -40.985400 0.000008 0.000006 8.588050 13.425700 -69.311900 -11.754300 -0.000006 -0.000006 -0.003295 -0.043900 -18.358600
